<svg class="border shadow-md" viewBox="0 0 776.6 621.28" xmlns="http://www.w3.org/2000/svg" preserveAspectRatio="none" style="width: 776.6px; height: 621.28px;"><rect class="bg" id="bg" x="0" y="0" width="776.6" height="621.28" fill="#ffffff"/><g transform="rotate(0 388.3 310.64)"><path d="M -488.30 -32.13 S -305.00 -63.19&#10;            0.00 -32.13 234.15 -63.19&#10;            488.30 -32.13 722.45 -93.13&#10;            976.60 -32.13 995.90 -64.13&#10;            1464.90 -32.13 h 110 V 821.28 H -488.30 Z" fill="#4E4ABF" id="-1"/><path d="M -488.30 30.00 S -303.00 -3.00&#10;            0.00 30.00 75.30 -1.06&#10;            488.30 30.00 722.45 -1.06&#10;            976.60 30.00 1210.75 -28.00&#10;            1464.90 30.00 h 110 V 821.28 H -488.30 Z" fill="#4756c3" id="0"/><path d="M -488.30 92.13 S -493.00 47.13&#10;            0.00 92.13 173.30 61.06&#10;            488.30 92.13 614.60 47.13&#10;            976.60 92.13 1062.90 61.06&#10;            1464.90 92.13 h 110 V 821.28 H -488.30 Z" fill="#4062c7" id="1"/><path d="M -488.30 154.26 S -254.15 123.19&#10;            0.00 154.26 234.15 113.26&#10;            488.30 154.26 587.60 123.19&#10;            976.60 154.26 1210.75 118.26&#10;            1464.90 154.26 h 110 V 821.28 H -488.30 Z" fill="#396ecb" id="2"/><path d="M -488.30 216.38 S -254.15 176.38&#10;            0.00 216.38 179.30 185.32&#10;            488.30 216.38 491.60 177.38&#10;            976.60 216.38 1210.75 167.38&#10;            1464.90 216.38 h 110 V 821.28 H -488.30 Z" fill="#327acf" id="3"/><path d="M -488.30 278.51 S -254.15 247.45&#10;            0.00 278.51 33.30 247.45&#10;            488.30 278.51 597.60 247.45&#10;            976.60 278.51 1210.75 247.45&#10;            1464.90 278.51 h 110 V 821.28 H -488.30 Z" fill="#2b86d3" id="4"/><path d="M -488.30 340.64 S -254.15 307.64&#10;            0.00 340.64 234.15 307.64&#10;            488.30 340.64 722.45 295.64&#10;            976.60 340.64 1195.90 309.58&#10;            1464.90 340.64 h 110 V 821.28 H -488.30 Z" fill="#2492d7" id="5"/><path d="M -488.30 402.77 S -375.00 371.70&#10;            0.00 402.77 161.30 369.77&#10;            488.30 402.77 511.60 371.70&#10;            976.60 402.77 1198.90 371.70&#10;            1464.90 402.77 h 110 V 821.28 H -488.30 Z" fill="#1d9edb" id="6"/><path d="M -488.30 464.90 S -299.00 433.83&#10;            0.00 464.90 177.30 433.83&#10;            488.30 464.90 615.60 433.83&#10;            976.60 464.90 1210.75 433.83&#10;            1464.90 464.90 h 110 V 821.28 H -488.30 Z" fill="#16aadf" id="7"/><path d="M -488.30 527.02 S -254.15 486.02&#10;            0.00 527.02 234.15 495.96&#10;            488.30 527.02 722.45 467.02&#10;            976.60 527.02 984.90 482.02&#10;            1464.90 527.02 h 110 V 821.28 H -488.30 Z" fill="#0fb6e3" id="8"/><path d="M -488.30 589.15 S -380.00 532.15&#10;            0.00 589.15 234.15 558.09&#10;            488.30 589.15 722.45 542.15&#10;            976.60 589.15 1098.90 558.09&#10;            1464.90 589.15 h 110 V 821.28 H -488.30 Z" fill="#08c2e7" id="9"/></g></svg>