<?xml version="1.0" standalone="no"?><svg xmlns="http://www.w3.org/2000/svg" viewBox="0 0 1440 320"><path fill="#05d8f0" fill-opacity="1" d="M0,320L6.2,304C12.3,288,25,256,37,234.7C49.2,213,62,203,74,208C86.2,213,98,235,111,224C123.1,213,135,171,148,176C160,181,172,235,185,261.3C196.9,288,209,288,222,272C233.8,256,246,224,258,208C270.8,192,283,192,295,170.7C307.7,149,320,107,332,117.3C344.6,128,357,192,369,181.3C381.5,171,394,85,406,74.7C418.5,64,431,128,443,144C455.4,160,468,128,480,133.3C492.3,139,505,181,517,181.3C529.2,181,542,139,554,112C566.2,85,578,75,591,90.7C603.1,107,615,149,628,160C640,171,652,149,665,138.7C676.9,128,689,128,702,160C713.8,192,726,256,738,250.7C750.8,245,763,171,775,138.7C787.7,107,800,117,812,122.7C824.6,128,837,128,849,112C861.5,96,874,64,886,90.7C898.5,117,911,203,923,240C935.4,277,948,267,960,234.7C972.3,203,985,149,997,154.7C1009.2,160,1022,224,1034,256C1046.2,288,1058,288,1071,261.3C1083.1,235,1095,181,1108,170.7C1120,160,1132,192,1145,186.7C1156.9,181,1169,139,1182,154.7C1193.8,171,1206,245,1218,234.7C1230.8,224,1243,128,1255,112C1267.7,96,1280,160,1292,170.7C1304.6,181,1317,139,1329,112C1341.5,85,1354,75,1366,101.3C1378.5,128,1391,192,1403,229.3C1415.4,267,1428,277,1434,282.7L1440,288L1440,320L1433.8,320C1427.7,320,1415,320,1403,320C1390.8,320,1378,320,1366,320C1353.8,320,1342,320,1329,320C1316.9,320,1305,320,1292,320C1280,320,1268,320,1255,320C1243.1,320,1231,320,1218,320C1206.2,320,1194,320,1182,320C1169.2,320,1157,320,1145,320C1132.3,320,1120,320,1108,320C1095.4,320,1083,320,1071,320C1058.5,320,1046,320,1034,320C1021.5,320,1009,320,997,320C984.6,320,972,320,960,320C947.7,320,935,320,923,320C910.8,320,898,320,886,320C873.8,320,862,320,849,320C836.9,320,825,320,812,320C800,320,788,320,775,320C763.1,320,751,320,738,320C726.2,320,714,320,702,320C689.2,320,677,320,665,320C652.3,320,640,320,628,320C615.4,320,603,320,591,320C578.5,320,566,320,554,320C541.5,320,529,320,517,320C504.6,320,492,320,480,320C467.7,320,455,320,443,320C430.8,320,418,320,406,320C393.8,320,382,320,369,320C356.9,320,345,320,332,320C320,320,308,320,295,320C283.1,320,271,320,258,320C246.2,320,234,320,222,320C209.2,320,197,320,185,320C172.3,320,160,320,148,320C135.4,320,123,320,111,320C98.5,320,86,320,74,320C61.5,320,49,320,37,320C24.6,320,12,320,6,320L0,320Z"></path></svg>